<?xml version="1.0" standalone="no"?>
<!DOCTYPE svg PUBLIC "-//W3C//DTD SVG 20010904//EN"
 "http://www.w3.org/TR/2001/REC-SVG-20010904/DTD/svg10.dtd">
<svg version="1.0" xmlns="http://www.w3.org/2000/svg"
 width="546.000000pt" height="453.000000pt" viewBox="0 0 546.000000 453.000000"
 preserveAspectRatio="xMidYMid meet">

<g transform="translate(0.000000,453.000000) scale(0.100000,-0.100000)"
fill="#000000" stroke="none">
<path d="M2427 4154 c-1126 -175 -1821 -1308 -1462 -2382 219 -652 783 -1123
1470 -1227 130 -19 390 -19 520 0 663 100 1217 546 1449 1167 406 1088 -294
2269 -1450 2443 -123 19 -406 18 -527 -1z m458 -24 c647 -72 1199 -480 1455
-1073 81 -186 130 -392 144 -604 l5 -83 -313 0 -314 0 -7 78 c-26 291 -138
526 -346 729 -232 227 -491 333 -814 333 -323 0 -583 -106 -814 -333 -209
-204 -320 -439 -346 -729 l-7 -78 -315 0 -314 0 5 53 c3 28 8 86 11 127 8 96
49 280 86 385 161 457 498 831 934 1035 294 138 633 195 950 160z m53 -674
c245 -53 476 -198 645 -406 83 -102 177 -287 207 -408 27 -109 39 -268 29
-397 -12 -147 -41 -251 -109 -390 -151 -309 -436 -535 -772 -612 -102 -23
-384 -23 -486 0 -410 94 -751 420 -852 817 -43 167 -43 413 0 578 110 430 490
770 933 832 88 12 318 4 405 -14z m1207 -1406 c83 -28 155 -52 162 -54 14 -6
5 -46 -11 -46 -6 0 -58 15 -116 34 -58 19 -106 33 -108 31 -2 -1 43 -35 98
-75 80 -57 100 -77 98 -94 -3 -20 -10 -21 -143 -26 l-140 -5 123 -39 c97 -31
122 -42 122 -57 0 -10 -4 -21 -10 -24 -9 -6 -328 91 -342 103 -4 4 0 21 7 39
l14 32 136 3 137 3 -103 75 c-56 41 -106 78 -111 81 -12 8 11 69 26 69 6 0 79
-23 161 -50z m-2714 -18 c38 -43 49 -114 22 -150 -21 -29 -81 -64 -95 -56 -4
3 -8 15 -8 27 0 16 9 26 30 34 55 21 48 109 -10 123 -61 15 -194 -34 -219 -81
-12 -22 -12 -29 0 -55 12 -24 21 -29 57 -32 23 -2 42 -7 42 -12 0 -4 3 -15 6
-23 4 -10 -5 -16 -30 -21 -45 -9 -90 14 -111 54 -20 38 -19 109 1 138 32 46
166 95 244 88 34 -3 51 -11 71 -34z m161 -361 c35 -28 62 -93 53 -128 -14 -59
-168 -173 -232 -173 -61 0 -123 64 -123 128 0 52 28 89 108 143 63 42 81 49
121 49 33 0 56 -6 73 -19z m2238 -6 c14 -17 13 -18 -57 -111 l-23 -30 45 -32
45 -31 41 54 c36 47 43 53 59 42 18 -11 17 -14 -14 -57 -17 -25 -35 -50 -39
-57 -6 -10 65 -73 83 -73 4 0 26 27 50 60 46 64 51 67 69 47 8 -11 -2 -32 -47
-95 -31 -45 -59 -82 -62 -82 -12 0 -285 202 -285 211 0 12 108 168 116 169 4
0 12 -7 19 -15z m-2017 -265 l26 -21 -45 -126 c-24 -69 -42 -128 -41 -130 2
-2 54 31 116 72 l111 76 30 -21 30 -22 -48 -61 c-27 -34 -77 -99 -111 -144
-56 -74 -65 -81 -82 -70 -10 6 -19 14 -19 18 0 3 35 50 77 105 83 106 84 106
-60 8 -83 -57 -98 -62 -116 -40 -9 10 -2 39 29 126 22 62 39 115 37 117 -2 2
-35 -37 -72 -87 -38 -49 -71 -90 -74 -90 -3 0 -14 6 -23 13 -15 12 -5 28 90
154 59 78 110 142 113 142 4 1 18 -8 32 -19z m1814 -75 c29 -29 34 -41 31 -66
-4 -22 -1 -29 9 -25 40 16 103 -50 103 -106 0 -29 -45 -81 -107 -126 l-32 -23
-108 137 c-59 75 -108 141 -108 147 0 17 124 97 152 97 15 0 38 -13 60 -35z
m-1362 -196 c30 -11 62 -30 70 -42 35 -51 4 -159 -50 -173 -26 -6 -79 -1 -121
11 -19 6 -24 0 -44 -59 -19 -59 -23 -64 -43 -57 -12 5 -22 12 -22 17 0 5 25
83 55 172 62 184 48 171 155 131z m830 -43 c0 -16 -12 -22 -65 -34 -36 -8 -69
-17 -73 -22 -11 -10 13 -100 27 -100 6 0 34 6 63 14 55 15 63 13 63 -15 0 -10
-11 -19 -27 -23 -16 -4 -44 -11 -65 -17 l-36 -9 13 -51 c8 -28 16 -53 18 -56
3 -2 32 3 65 11 82 22 94 21 90 -6 -3 -19 -16 -25 -98 -43 -66 -15 -97 -19
-101 -11 -9 15 -82 337 -78 340 10 8 166 44 184 43 13 -1 20 -9 20 -21z m-399
-52 c53 -39 56 -123 7 -172 l-26 -26 22 -66 c26 -83 26 -82 -6 -78 -23 3 -29
12 -51 76 -22 66 -26 72 -52 72 -24 0 -28 -5 -34 -37 -3 -21 -6 -53 -6 -70 0
-29 -3 -33 -26 -33 l-26 0 7 128 c3 70 8 151 11 181 l6 53 73 -4 c55 -2 81 -9
101 -24z"/>
<path d="M2547 3993 l-47 -4 5 -52 c3 -29 8 -110 11 -180 5 -107 8 -127 21
-123 8 3 18 6 21 6 4 0 6 31 4 70 l-4 70 36 0 c35 0 37 -2 67 -70 26 -58 36
-70 55 -70 l23 0 -34 75 c-32 70 -33 76 -16 85 46 24 51 116 8 166 -24 27 -64
35 -150 27z m120 -60 c18 -24 16 -73 -4 -95 -11 -12 -30 -18 -58 -18 -48 0
-55 11 -55 87 0 31 4 43 18 47 30 8 87 -3 99 -21z"/>
<path d="M2966 3963 c-18 -61 -76 -327 -72 -330 3 -3 47 -15 100 -27 l95 -23
5 21 c3 11 4 21 3 21 -1 1 -36 9 -78 19 l-76 17 14 58 15 59 56 -14 c76 -18
82 -17 82 5 0 15 -12 22 -54 32 -77 17 -77 17 -62 74 14 56 13 56 113 30 45
-11 52 -11 58 3 8 22 -1 27 -85 47 -41 9 -83 19 -92 21 -10 3 -18 -2 -22 -13z"/>
<path d="M2130 3898 c-36 -11 -67 -22 -69 -23 -4 -4 15 -64 71 -222 37 -104
56 -131 72 -104 3 5 -3 35 -14 66 -11 32 -20 61 -20 65 0 4 19 12 42 19 23 7
55 26 71 42 25 26 28 34 22 67 -9 49 -33 88 -62 101 -31 14 -36 14 -113 -11z
m113 -50 c36 -42 12 -96 -52 -117 -19 -6 -35 -10 -36 -9 -1 2 -12 31 -23 66
l-21 63 22 8 c12 4 29 11 37 14 23 8 53 -2 73 -25z"/>
<path d="M1793 3731 c-13 -11 -23 -23 -23 -28 0 -4 20 -64 44 -133 25 -68 43
-126 41 -128 -2 -2 -19 7 -37 20 -18 14 -70 50 -115 81 l-82 57 -26 -23 -25
-22 100 -130 c124 -160 117 -153 135 -134 13 13 6 26 -65 117 -44 57 -80 105
-80 107 0 2 52 -31 116 -75 96 -65 120 -78 135 -69 11 5 19 12 19 14 0 2 -20
61 -45 131 -25 69 -45 129 -45 131 0 3 37 -43 81 -101 74 -97 83 -106 97 -92
14 14 13 19 -9 49 -67 93 -185 246 -189 246 -3 0 -15 -8 -27 -18z"/>
<path d="M3530 3588 c-52 -67 -101 -130 -108 -140 -11 -16 -6 -22 49 -63 78
-57 123 -61 163 -14 18 22 26 42 26 70 0 25 4 38 10 34 17 -11 59 23 77 61 16
33 16 37 -1 67 -14 26 -104 107 -118 107 -1 0 -46 -55 -98 -122z m151 33 c41
-42 38 -84 -9 -102 -20 -8 -32 -5 -64 16 -24 16 -36 30 -31 38 16 28 59 77 66
77 5 0 22 -13 38 -29z m-94 -123 c19 -18 33 -42 33 -55 0 -27 -33 -63 -58 -63
-17 0 -92 46 -92 56 0 8 71 94 78 94 3 0 21 -14 39 -32z"/>
<path d="M3840 3299 c-69 -50 -131 -96 -138 -103 -11 -11 -4 -27 46 -95 49
-67 61 -79 71 -67 10 12 4 26 -30 75 -47 67 -46 72 19 113 40 24 30 30 94 -53
20 -26 29 -31 38 -22 10 9 5 23 -24 62 -20 28 -36 54 -36 59 0 9 75 62 87 62
5 0 28 -27 51 -60 30 -41 47 -58 58 -53 8 3 13 11 10 19 -8 21 -107 154 -114
153 -4 0 -63 -41 -132 -90z"/>
<path d="M1358 3305 c-14 -8 -36 -35 -48 -59 l-21 -45 19 -45 c31 -70 147
-146 223 -146 33 0 47 6 74 33 79 79 49 159 -89 242 -65 38 -113 44 -158 20z
m83 -37 c48 -16 135 -78 153 -109 25 -43 -9 -109 -57 -109 -32 0 -100 37 -151
81 -54 48 -61 85 -21 124 28 29 30 29 76 13z"/>
<path d="M4040 2951 c-137 -46 -165 -59 -162 -73 2 -10 7 -18 10 -18 4 0 60
17 125 38 64 21 117 35 117 32 0 -3 -47 -39 -105 -80 -80 -57 -104 -80 -103
-95 3 -19 12 -20 148 -25 l145 -5 -125 -42 c-116 -38 -149 -60 -122 -77 7 -4
312 87 334 100 4 3 2 18 -3 34 l-11 29 -146 3 -146 3 117 84 c120 87 124 92
98 137 -4 7 -61 -7 -171 -45z"/>
<path d="M1146 2885 c-32 -34 -50 -102 -37 -136 19 -53 138 -108 237 -112 59
-2 87 16 110 70 30 70 13 118 -53 152 -19 9 -23 8 -29 -11 -4 -14 -2 -24 6
-26 25 -9 50 -42 50 -67 0 -14 -12 -37 -26 -52 -22 -22 -32 -25 -72 -20 -26 3
-73 15 -106 27 -66 25 -92 63 -74 109 12 33 25 41 71 41 25 0 40 5 44 16 15
41 -85 48 -121 9z"/>
<path d="M2513 3335 c-82 -15 -203 -53 -203 -64 0 -4 11 -18 24 -30 l24 -23
103 26 c183 44 335 42 496 -5 l73 -22 25 23 c14 13 25 26 25 30 0 9 -160 57
-234 70 -79 13 -244 11 -333 -5z"/>
<path d="M1975 3070 l-220 -220 220 -220 220 -220 220 220 220 220 -220 220
-220 220 -220 -220z"/>
<path d="M2974 3069 l-219 -219 219 -219 219 -220 224 217 c123 118 222 219
221 223 -2 4 -102 104 -224 223 l-221 215 -219 -220z"/>
<path d="M2476 2571 l-220 -220 119 -123 c65 -68 164 -167 220 -220 l101 -97
220 220 219 219 -220 220 -220 220 -219 -219z"/>
<path d="M1752 2683 c-71 -196 -77 -422 -16 -623 14 -47 29 -88 33 -93 4 -4
19 5 33 20 l27 28 -27 85 c-23 77 -26 100 -26 255 0 153 3 178 26 252 l25 82
-27 26 -27 26 -21 -58z"/>
<path d="M3588 2713 l-27 -28 27 -85 c23 -77 26 -100 26 -255 0 -153 -3 -178
-26 -252 l-25 -82 27 -26 27 -26 21 58 c71 196 77 421 16 623 -14 47 -29 88
-33 93 -4 4 -19 -5 -33 -20z"/>
<path d="M1970 2070 l-225 -218 225 -220 225 -220 220 219 220 219 -220 219
-220 220 -225 -219z"/>
<path d="M2975 2070 l-220 -220 220 -220 220 -220 220 220 220 220 -220 220
-220 220 -220 -220z"/>
<path d="M2331 1456 c-14 -14 -23 -28 -20 -30 2 -2 33 -13 69 -25 205 -67 436
-67 635 -1 36 12 65 25 65 29 0 4 -11 18 -24 30 l-24 23 -108 -28 c-144 -36
-325 -38 -449 -4 -123 34 -118 34 -144 6z"/>
<path d="M1435 1602 c-33 -21 -68 -48 -78 -60 -26 -29 -19 -80 15 -105 26 -19
29 -19 70 -4 61 24 140 87 151 121 7 22 5 33 -10 55 -32 42 -76 40 -148 -7z"/>
<path d="M3512 1288 c-34 -25 -34 -34 1 -78 28 -36 37 -37 70 -2 32 33 34 55
7 82 -26 26 -38 25 -78 -2z"/>
<path d="M3602 1162 l-32 -27 39 -45 39 -45 27 25 c40 37 48 56 34 83 -24 46
-59 49 -107 9z"/>
<path d="M2184 1048 c-10 -29 -19 -57 -19 -62 0 -5 18 -15 39 -23 34 -11 42
-11 63 2 42 28 42 98 0 114 -66 25 -64 25 -83 -31z"/>
<path d="M2566 996 c-3 -12 -6 -42 -6 -68 l0 -48 44 0 c62 0 83 23 76 85 -3
29 -14 37 -64 45 -40 6 -45 4 -50 -14z"/>
</g>
</svg>
